<?xml version="1.0" standalone="no"?>
<!DOCTYPE svg PUBLIC "-//W3C//DTD SVG 20010904//EN"
 "http://www.w3.org/TR/2001/REC-SVG-20010904/DTD/svg10.dtd">
<svg version="1.0" xmlns="http://www.w3.org/2000/svg"
 width="512.000000pt" height="512.000000pt" viewBox="0 0 512.000000 512.000000"
 preserveAspectRatio="xMidYMid meet">

<g transform="translate(0.000000,512.000000) scale(0.100000,-0.100000)"
fill="#000000" stroke="none">
<path d="M2440 4945 c-375 -85 -558 -522 -352 -841 l39 -60 -41 -24 c-65 -37
-146 -102 -212 -172 l-62 -64 -58 79 c-60 81 -144 158 -221 203 l-44 26 21 32
c135 200 112 445 -56 614 -74 74 -156 116 -261 134 -311 53 -598 -234 -545
-544 12 -69 52 -166 87 -214 15 -21 14 -23 -27 -47 -166 -97 -314 -300 -363
-498 -22 -89 -31 -321 -15 -401 35 -183 177 -326 353 -359 83 -15 883 -8 919
8 27 12 29 11 52 -36 14 -26 41 -69 60 -94 l36 -47 -760 0 c-543 0 -766 -3
-784 -11 -40 -19 -49 -57 -41 -170 8 -120 26 -195 62 -261 34 -62 75 -94 184
-146 139 -66 219 -172 290 -382 43 -131 43 -204 0 -325 -47 -127 -46 -181 4
-282 32 -64 59 -98 154 -194 126 -125 185 -171 271 -206 72 -29 129 -29 215 3
162 60 238 62 390 11 199 -68 292 -142 366 -289 56 -112 101 -160 174 -187
143 -54 427 -54 570 0 74 27 118 75 175 188 73 146 167 220 365 288 152 51
228 49 390 -11 161 -59 268 -14 486 203 95 96 122 130 154 194 47 95 50 156
11 262 -63 176 -54 265 49 481 62 128 124 193 234 246 117 55 154 87 191 161
34 70 46 126 56 256 8 102 -3 142 -42 160 -18 8 -241 11 -784 11 l-760 0 36
47 c19 25 46 68 60 94 23 47 25 48 52 36 36 -16 836 -23 919 -8 177 33 318
176 354 359 15 82 6 313 -17 402 -51 202 -195 400 -361 497 l-44 25 21 32 c72
107 102 238 81 356 -46 256 -293 434 -543 392 -261 -44 -443 -291 -400 -544
12 -68 52 -166 87 -214 15 -20 13 -22 -45 -58 -73 -45 -176 -145 -224 -217
l-36 -54 -98 95 c-54 52 -126 111 -159 129 l-60 35 39 60 c112 174 112 420 0
591 -105 161 -259 250 -447 260 -50 3 -104 -1 -145 -10z m284 -183 c91 -42
149 -100 194 -190 35 -72 37 -81 37 -171 0 -87 -3 -102 -32 -163 -41 -88 -113
-160 -201 -201 -60 -28 -77 -32 -157 -32 -105 0 -169 20 -242 75 -231 174
-212 513 38 667 98 61 251 67 363 15z m-1508 -57 c74 -22 141 -79 183 -155 33
-60 36 -71 36 -150 0 -77 -3 -91 -34 -148 -38 -70 -70 -100 -145 -140 -44 -22
-63 -26 -136 -26 -69 0 -94 4 -135 24 -104 51 -173 151 -182 264 -19 226 194
397 413 331z m2882 -1 c76 -25 140 -79 181 -154 33 -60 36 -71 36 -150 -1 -72
-5 -93 -28 -137 -34 -66 -84 -116 -150 -150 -44 -23 -64 -27 -137 -27 -70 -1
-94 3 -135 24 -106 51 -173 150 -183 265 -18 227 199 399 416 329z m-2978
-779 c101 0 122 3 177 26 l62 26 65 -36 c88 -48 176 -126 176 -154 0 -12 -11
-48 -24 -80 -82 -199 -260 -372 -501 -486 -92 -44 -275 -107 -393 -136 -80
-19 -80 -15 -18 -84 31 -33 31 -33 6 -26 -71 19 -157 112 -180 193 -15 54 -12
266 5 347 8 39 33 108 56 155 53 107 171 230 266 277 l62 31 63 -26 c56 -24
76 -27 178 -27z m2880 0 c101 0 122 3 177 26 l62 26 65 -36 c88 -48 176 -126
176 -154 0 -12 -11 -48 -24 -80 -82 -199 -260 -372 -501 -486 -83 -40 -313
-121 -341 -121 -10 0 -14 13 -14 43 0 154 -50 348 -121 472 l-40 69 47 68 c54
80 129 147 214 192 l61 33 62 -26 c55 -23 76 -26 177 -26z m-1678 -28 c64 -31
171 -57 238 -57 69 0 179 27 245 59 l59 30 50 -25 c225 -113 386 -334 431
-589 22 -126 20 -337 -3 -413 -34 -107 -105 -187 -209 -235 -48 -22 -51 -22
-573 -22 -525 0 -525 0 -574 23 -106 48 -179 134 -211 246 -25 86 -16 369 14
473 68 233 208 407 415 517 28 15 52 25 55 23 3 -2 31 -15 63 -30z m-866
-1509 c61 -423 378 -781 797 -902 640 -186 1316 246 1411 902 l12 87 562 3
563 2 -6 -52 c-10 -84 -33 -152 -57 -175 -13 -11 -59 -39 -103 -61 -115 -57
-175 -108 -238 -204 -106 -159 -167 -339 -167 -491 0 -76 5 -104 37 -197 l36
-107 -21 -45 c-44 -89 -239 -285 -328 -328 -55 -27 -80 -25 -171 11 -64 26
-96 33 -178 37 -114 5 -202 -12 -342 -68 -194 -77 -303 -171 -380 -326 -56
-114 -72 -127 -183 -145 -87 -13 -298 -7 -350 12 -52 18 -69 37 -106 118 -19
40 -50 95 -70 122 -70 96 -222 190 -404 251 -87 30 -106 32 -225 32 -124 0
-134 -1 -208 -32 -43 -18 -93 -32 -111 -32 -86 0 -364 258 -397 368 -9 32 -7
46 11 97 81 218 66 375 -59 622 -80 159 -153 234 -301 308 -41 20 -85 47 -98
58 -24 23 -47 90 -57 175 l-7 52 563 -2 563 -3 12 -87z m234 63 c0 -84 63
-286 121 -390 67 -120 172 -240 289 -334 47 -38 4 -17 -75 36 -224 151 -378
400 -418 680 l-6 37 45 0 c42 0 44 -1 44 -29z"/>
<path d="M1213 2280 c-49 -20 -54 -65 -17 -176 64 -196 209 -428 356 -571 98
-96 242 -198 363 -257 119 -59 251 -106 295 -106 37 0 69 28 76 66 9 47 -25
77 -126 109 -378 121 -693 437 -815 815 -36 114 -70 145 -132 120z"/>
<path d="M3828 2268 c-17 -14 -36 -54 -53 -108 -122 -377 -440 -695 -815 -815
-101 -32 -135 -62 -126 -109 7 -38 39 -66 75 -66 38 0 189 52 285 99 286 139
539 396 669 681 41 89 87 228 87 261 0 64 -76 99 -122 57z"/>
</g>
</svg>
